<?xml version="1.0" encoding="UTF-8"?>
<svg width="32px" height="32px" viewBox="0 0 32 32" version="1.1" xmlns="http://www.w3.org/2000/svg">
  <circle cx="16" cy="16" r="15" fill="#4ade80" opacity="0.2"/>
  <circle cx="16" cy="16" r="12" fill="#4ade80" opacity="0.4"/>
  <path d="M16 8c-4.4 0-8 3.6-8 8s3.6 8 8 8 8-3.6 8-8-3.6-8-8-8zm0 14.4c-3.5 0-6.4-2.9-6.4-6.4S12.5 9.6 16 9.6s6.4 2.9 6.4 6.4-2.9 6.4-6.4 6.4z" fill="#16a34a"/>
  <path d="M17.2 12.8h-2.4v1.6h2.4v-1.6zm0 3.2h-2.4v3.2h2.4V16zm-1.2-6.4c-3.5 0-6.4 2.9-6.4 6.4s2.9 6.4 6.4 6.4 6.4-2.9 6.4-6.4-2.9-6.4-6.4-6.4zm0 11.2c-2.6 0-4.8-2.2-4.8-4.8s2.2-4.8 4.8-4.8 4.8 2.2 4.8 4.8-2.2 4.8-4.8 4.8z" fill="#16a34a"/>
</svg> 